# xmcd
#
# Track frame offsets:
#	150
#	10596
#	23176
#	33643
#	45059
#	58867
#	72723
#	84055
#	97582
#	111660
#	124684
#	139499
#	153907
#	169860
#	183044
#
# Disc length: 2611 seconds
#
# Revision: 0
# Processed by: cddbd v1.5.2PL0 Copyright (c) Steve Scherf et al.
# Submitted via: audiograbber 1.83.01
#
DISCID=ba0a310f
DTITLE=Loretta Lynn - cb90306
DYEAR=1900
DGENRE=
TTITLE0=Wine Women and Song
TTITLE1=Befor I'm Over You
TTITLE2=Happy Birthday
TTITLE3=Dear Uncle Sam
TTITLE4=What Kind of Girl (Do You Think I Am)
TTITLE5=I've Got a Picture of Us On My Mind
TTITLE6=I Wanna Be Free
TTITLE7=Here I Am Again
TTITLE8=Hey Loretta
TTITLE9=The Pill
TTITLE10=When the Tingle Becomes a Chill
TTITLE11=I Can't Love You Enough  w/Conway Twitty
TTITLE12=I Can't Feel You Anymore
TTITLE13=Success
TTITLE14=You're the Reason Our Kids Are Ugly w/Conway Twitty
EXTD=
EXTT0=
EXTT1=
EXTT2=
EXTT3=
EXTT4=
EXTT5=
EXTT6=
EXTT7=
EXTT8=
EXTT9=
EXTT10=
EXTT11=
EXTT12=
EXTT13=
EXTT14=
PLAYORDER=
